<?xml version="1.0" encoding="UTF-8"?>
<svg xmlns="http://www.w3.org/2000/svg" xmlns:xlink="http://www.w3.org/1999/xlink" width="1250pt" height="1250pt" viewBox="0 0 1250 1250" version="1.1">
<g id="surface952">
<path style="fill:none;stroke-width:7;stroke-linecap:butt;stroke-linejoin:miter;stroke:rgb(0%,0%,0%);stroke-opacity:1;stroke-miterlimit:4;" d="M 81.499958 42.499996 C 81.499958 64.039056 64.039004 81.499992 42.499868 81.499992 C 20.961045 81.499992 3.499779 64.039056 3.499779 42.499996 C 3.499779 20.960936 20.961045 3.5 42.499868 3.5 C 64.039004 3.5 81.499958 20.960936 81.499958 42.499996 Z M 81.499958 42.499996 " transform="matrix(12.529519,0,0,12.500001,0.00492093,0)"/>
<path style="fill:none;stroke-width:7;stroke-linecap:butt;stroke-linejoin:miter;stroke:rgb(0%,0%,0%);stroke-opacity:1;stroke-miterlimit:4;" d="M 42.999937 3.5 L 92.999988 3.5 " transform="matrix(12.529519,0,0,12.500001,0.00492093,0)"/>
<path style="fill:none;stroke-width:7;stroke-linecap:butt;stroke-linejoin:miter;stroke:rgb(0%,0%,0%);stroke-opacity:1;stroke-miterlimit:4;" d="M 48.26251 97.819053 L 71.366076 68.819056 " transform="matrix(12.529519,0,0,12.500001,0.00492093,0)"/>
<path style="fill:none;stroke-width:7;stroke-linecap:butt;stroke-linejoin:miter;stroke:rgb(0%,0%,0%);stroke-opacity:1;stroke-miterlimit:4;" d="M 80.381661 33.098122 L 96.38169 93.098116 " transform="matrix(12.529519,0,0,12.500001,0.00492093,0)"/>
<path style="fill:none;stroke-width:7;stroke-linecap:butt;stroke-linejoin:miter;stroke:rgb(0%,0%,0%);stroke-opacity:1;stroke-miterlimit:4;" d="M 3.49105 44.750621 L 6.490841 86.750617 " transform="matrix(12.529519,0,0,12.500001,0.00492093,0)"/>
<path style="fill:none;stroke-width:5;stroke-linecap:butt;stroke-linejoin:miter;stroke:rgb(0%,0%,0%);stroke-opacity:1;stroke-miterlimit:4;" d="M 63.499964 43.499996 C 63.499964 54.54562 54.545797 63.499994 43.500007 63.499994 C 32.454216 63.499994 23.500049 54.54562 23.500049 43.499996 C 23.500049 32.454372 32.454216 23.499998 43.500007 23.499998 C 54.545797 23.499998 63.499964 32.454372 63.499964 43.499996 Z M 63.499964 43.499996 " transform="matrix(12.529519,0,0,12.500001,0.00492093,0)"/>
<path style=" stroke:none;fill-rule:nonzero;fill:rgb(0%,0%,0%);fill-opacity:1;" d="M 463.597656 356.25 C 463.597656 401.125 427.132812 437.5 382.152344 437.5 C 337.179688 437.5 300.710938 401.125 300.710938 356.25 C 300.710938 311.375 337.179688 275 382.152344 275 C 427.132812 275 463.597656 311.375 463.597656 356.25 Z M 463.597656 356.25 "/>
<path style=" stroke:none;fill-rule:nonzero;fill:rgb(0%,0%,0%);fill-opacity:1;" d="M 789.367188 718.75 C 789.367188 763.625 752.898438 800 707.925781 800 C 662.945312 800 626.480469 763.625 626.480469 718.75 C 626.480469 673.875 662.945312 637.5 707.925781 637.5 C 752.898438 637.5 789.367188 673.875 789.367188 718.75 Z M 789.367188 718.75 "/>
</g>
</svg>
