<?xml version="1.0" encoding="UTF-8" standalone="no"?><!-- Generator: Gravit.io --><svg xmlns="http://www.w3.org/2000/svg" xmlns:xlink="http://www.w3.org/1999/xlink" style="isolation:isolate" viewBox="0 0 1935 1935" width="1935pt" height="1935pt"><defs><clipPath id="_clipPath_1vRTTmEUhBQ4dqsdJvaTCmBnX6oZYJpE"><rect width="1935" height="1935"/></clipPath></defs><g clip-path="url(#_clipPath_1vRTTmEUhBQ4dqsdJvaTCmBnX6oZYJpE)"><rect width="1935" height="1935" style="fill:rgb(19,19,19)" fill-opacity="0"/><g><g><g><defs><filter id="ovD21irC36AGpzJn0v3wurHgFKub5SxR" x="-200%" y="-200%" width="400%" height="400%" filterUnits="objectBoundingBox" color-interpolation-filters="sRGB"><feGaussianBlur xmlns="http://www.w3.org/2000/svg" stdDeviation="0.3834496387174635"/></filter></defs><g opacity="0.4" filter="url(#ovD21irC36AGpzJn0v3wurHgFKub5SxR)"><path d=" M -92.202 889.917 C -92.371 889.917 -92.507 890.054 -92.507 890.223 L -92.507 890.986 L -92.507 892.895 L -92.507 893.582 C -92.507 893.751 -92.371 893.887 -92.202 893.887 L -88.843 893.887 C -88.674 893.887 -88.537 893.751 -88.537 893.582 L -88.537 892.895 L -88.537 890.986 L -88.537 890.223 C -88.537 890.054 -88.674 889.917 -88.843 889.917 L -92.202 889.917 Z " fill="rgb(32,34,31)"/></g><rect x="0.582" y="-24.962" width="1984.925" height="1984.925" transform="matrix(1,0,0,1,0,0)" fill="none"/><defs><linearGradient id="_lgradient_0" x1="2.40384614991207e-9" y1="0.3809524149659894" x2="1.000000002403846" y2="0.3809524149659894"><stop offset="0%" style="stop-color:#BABDB6"/><stop offset="4.166667%" style="stop-color:#F6F5F4"/><stop offset="8.333334%" style="stop-color:#D5D3CF"/><stop offset="91.666669%" style="stop-color:#DEDDDA"/><stop offset="95.833331%" style="stop-color:#F6F5F4"/><stop offset="100%" style="stop-color:#BABDB6"/></linearGradient></defs><path d="M 310.728 471.27 L 1675.362 471.27 C 1743.832 471.27 1799.42 526.858 1799.42 595.327 L 1799.42 1649.813 C 1799.42 1718.282 1743.832 1773.87 1675.362 1773.87 L 310.728 1773.87 C 242.258 1773.87 186.67 1718.282 186.67 1649.813 L 186.67 595.327 C 186.67 526.858 242.258 471.27 310.728 471.27 Z" style="stroke:none;fill:url(#_lgradient_0);stroke-miterlimit:10;"/><path d=" M 310.727 161.123 L 1675.363 161.123 C 1744.091 161.123 1799.421 216.453 1799.421 285.181 L 1799.421 1370.688 C 1799.421 1439.416 1744.091 1494.746 1675.363 1494.746 L 310.727 1494.746 C 241.999 1494.746 186.67 1439.416 186.67 1370.688 L 186.67 285.181 C 186.67 216.453 241.999 161.123 310.727 161.123 Z " fill="rgb(246,245,244)"/><path d="M 389.713 1556.98 L 1596.377 1556.98 C 1622.854 1556.98 1644.35 1577.78 1644.35 1603.4 L 1644.35 1603.4 C 1644.35 1629.02 1622.854 1649.82 1596.377 1649.82 L 389.713 1649.82 C 363.236 1649.82 341.74 1629.02 341.74 1603.4 L 341.74 1603.4 C 341.74 1577.78 363.236 1556.98 389.713 1556.98 Z" style="stroke:none;fill:#FFFFFF;stroke-miterlimit:10;"/><path d="M 374.206 1556.98 L 1611.884 1556.98 C 1629.803 1556.98 1644.35 1571.527 1644.35 1589.445 L 1644.35 1589.445 C 1644.35 1607.363 1629.803 1621.91 1611.884 1621.91 L 374.206 1621.91 C 356.287 1621.91 341.74 1607.363 341.74 1589.445 L 341.74 1589.445 C 341.74 1571.527 356.287 1556.98 374.206 1556.98 Z" style="stroke:none;fill:#5E5C64;stroke-miterlimit:10;"/><path d=" M 310.727 202.086 C 241.999 202.086 186.669 257.416 186.669 326.144 L 186.669 1349.621 L 1799.421 1349.621 L 1799.421 326.144 C 1799.421 257.416 1744.091 202.086 1675.363 202.086 L 310.727 202.086 Z " fill="rgb(191,86,86)"/></g></g><g><circle vector-effect="non-scaling-stroke" cx="1568.6731101796183" cy="1543.1281750018811" r="337.4372193196202" fill="rgb(204,204,204)"/><path d=" M 1543.946 1370.047 L 1543.946 1619.436 L 1474.886 1550.376 C 1470.25 1545.738 1463.962 1543.132 1457.405 1543.131 L 1420.315 1543.131 L 1420.315 1567.857 C 1420.317 1574.414 1422.923 1580.702 1427.56 1585.339 L 1551.191 1708.97 C 1560.847 1718.622 1576.499 1718.622 1586.154 1708.97 L 1709.785 1585.339 C 1714.423 1580.702 1717.029 1574.414 1717.03 1567.857 C 1717.031 1567.725 1717.031 1567.593 1717.03 1567.462 L 1717.03 1543.131 L 1679.941 1543.131 C 1673.384 1543.132 1667.095 1545.738 1662.459 1550.376 L 1593.399 1619.436 L 1593.399 1370.047 L 1543.946 1370.047 Z " fill="rgb(59,55,50)"/></g><linearGradient id="_lgradient_1" x1="0.4318439995601657" y1="-2.9322288486177683e-9" x2="0.435259741230803" y2="1.0756978895282918" gradientTransform="matrix(846.167,0,0,846.167,569.961,352.77)" gradientUnits="userSpaceOnUse"><stop offset="0%" stop-opacity="1" style="stop-color:rgb(186,189,182)"/><stop offset="0.6401600000000001%" stop-opacity="1" style="stop-color:rgb(246,245,244)"/><stop offset="0.6401600000000001%" stop-opacity="1" style="stop-color:rgb(213,211,207)"/><stop offset="56.86540599999999%" stop-opacity="1" style="stop-color:rgb(222,221,218)"/><stop offset="94.4906%" stop-opacity="1" style="stop-color:rgb(246,245,244)"/><stop offset="100%" stop-opacity="1" style="stop-color:rgb(186,189,182)"/></linearGradient><path d=" M 935.373 352.77 L 935.373 352.876 C 733.383 355.122 569.961 520.255 569.961 723.3 C 569.961 727.7 570.139 732.056 570.291 736.419 L 569.992 736.442 L 570.438 742.145 C 570.774 748.841 571.302 755.485 571.989 762.084 L 594.098 1045.742 L 627.218 1043.14 L 616.27 902.726 C 679.363 1016.619 800.528 1093.83 939.526 1093.83 C 999.357 1093.83 1055.842 1079.442 1105.868 1054.069 L 1007.246 1178.185 L 1033.216 1198.938 L 1216.178 968.694 C 1262.305 916.471 1294.026 851.179 1304.911 779.052 L 1384.141 1062.769 L 1416.128 1053.794 L 1299.863 637.467 L 1299.041 637.696 C 1272.499 525.485 1195.026 432.978 1092.466 386.076 L 1350.614 386.076 L 1350.614 352.77 L 939.526 352.77 L 935.373 352.77 Z  M 939.526 386.076 C 1125.481 386.076 1275.87 536.859 1275.87 723.3 C 1275.87 804.542 1247.298 879 1199.686 937.176 L 1199.117 936.718 L 1187.975 950.741 C 1126.499 1018.221 1038.006 1060.524 939.526 1060.524 C 765.584 1060.524 622.785 928.585 605.058 758.947 L 603.608 740.346 C 603.329 734.7 603.182 729.017 603.182 723.3 C 603.182 536.859 753.571 386.076 939.526 386.076 L 939.526 386.076 Z  M 939.526 527.626 C 902.928 527.626 868.659 537.804 839.353 555.458 C 831.337 550.32 822.023 547.589 812.51 547.588 C 799.289 547.587 786.608 552.853 777.259 562.226 C 767.91 571.599 762.658 584.312 762.658 597.567 C 762.672 607.325 765.534 616.865 770.892 625.011 C 754.061 653.921 744.363 687.489 744.363 723.3 C 744.363 831.17 831.937 918.974 939.526 918.974 C 972.919 918.974 1004.377 910.504 1031.894 895.612 C 1038.829 899.147 1046.492 901.006 1054.271 901.04 C 1067.493 901.04 1080.173 895.775 1089.522 886.402 C 1098.871 877.029 1104.123 864.316 1104.123 851.06 C 1104.117 844.979 1103.004 838.95 1100.839 833.269 C 1122.181 801.904 1134.688 764.038 1134.688 723.3 C 1134.688 615.43 1047.115 527.626 939.526 527.626 L 939.526 527.626 Z  M 939.526 560.932 C 1029.161 560.932 1101.471 633.43 1101.471 723.3 C 1101.471 754.059 1092.994 782.781 1078.257 807.26 C 1070.908 803.21 1062.658 801.085 1054.271 801.08 C 1026.741 801.081 1004.423 823.458 1004.423 851.06 C 1004.453 857.687 1005.797 864.242 1008.378 870.343 C 987.494 880.16 964.173 885.668 939.526 885.668 C 849.89 885.668 777.584 813.17 777.584 723.3 C 777.584 694.94 784.795 668.319 797.468 645.151 C 802.33 646.718 807.403 647.526 812.51 647.547 C 840.04 647.546 862.358 625.17 862.358 597.567 C 862.327 592.247 861.448 586.967 859.756 581.924 C 883.289 568.58 910.486 560.932 939.526 560.932 Z " fill="url(#_lgradient_1)"/></g></g></svg>